<?xml version="1.0" encoding="UTF-8"?>
<svg version="1.1" xmlns="http://www.w3.org/2000/svg" width="100" height="100">
<path d="M0 0 C1.2695755 -0.051492 2.539151 -0.10298401 3.84719849 -0.15603638 C9.71003687 -0.33623009 15.57366561 -0.45644691 21.43847656 -0.54882812 C24.51959333 -0.60194526 27.59435478 -0.69874577 30.67285156 -0.8359375 C60.5677358 -2.1313233 60.5677358 -2.1313233 70.01513672 6.43408203 C79.97036798 17.41442183 77.79797732 34.26898246 77.18347168 48.05810547 C77.06215962 51.14819783 77.01022322 54.23772803 76.96151924 57.32969475 C76.86092182 63.70492732 76.70760964 70.07839006 76.44921875 76.44921875 C76.4054007 77.56900116 76.36158264 78.68878357 76.31643677 79.84249878 C75.96826172 82.48095703 75.96826172 82.48095703 73.96826172 84.48095703 C71.41938048 84.67927219 68.97915951 84.75373965 66.42919922 84.73974609 C65.65183411 84.74325073 64.87446899 84.74675537 64.07354736 84.75036621 C61.4966954 84.75918909 58.92011662 84.75333249 56.34326172 84.74658203 C54.55729113 84.74792852 52.77132089 84.74986892 50.98535156 84.75238037 C47.23938513 84.75533239 43.49351397 84.75103152 39.74755859 84.74169922 C34.93863339 84.73030463 30.12993141 84.73686369 25.3210144 84.74884415 C21.63222563 84.75606067 17.94349005 84.75377578 14.25469971 84.74858856 C12.48122125 84.74725149 10.70773801 84.74890179 8.93426514 84.75354767 C6.45848747 84.75860952 3.98307462 84.75090766 1.50732422 84.73974609 C0.76959778 84.74379456 0.03187134 84.74784302 -0.72821045 84.75201416 C-5.8032095 84.70948581 -5.8032095 84.70948581 -8.03173828 82.48095703 C-8.23005344 79.93207579 -8.3045209 77.49185483 -8.29052734 74.94189453 C-8.29403198 74.16452942 -8.29753662 73.38716431 -8.30114746 72.58624268 C-8.30997034 70.00939071 -8.30411374 67.43281193 -8.29736328 64.85595703 C-8.29870977 63.06998644 -8.30065017 61.28401621 -8.30316162 59.49804688 C-8.30611364 55.75208044 -8.30181277 52.00620928 -8.29248047 48.26025391 C-8.28108588 43.4513287 -8.28764494 38.64262672 -8.2996254 33.83370972 C-8.30684192 30.14492095 -8.30455703 26.45618536 -8.29936981 22.76739502 C-8.29803274 20.99391656 -8.29968304 19.22043332 -8.30432892 17.44696045 C-8.30939077 14.97118278 -8.30168891 12.49576993 -8.29052734 10.02001953 C-8.29457581 9.28229309 -8.29862427 8.54456665 -8.30279541 7.78448486 C-8.24596006 1.00220021 -6.48488891 0.25375931 0 0 Z M7.96826172 4.48095703 C7.96826172 12.40095703 7.96826172 20.32095703 7.96826172 28.48095703 C11.60656956 32.56806102 11.60656956 32.56806102 16.03076172 32.99853516 C16.81837891 33.0111438 17.60599609 33.02375244 18.41748047 33.03674316 C19.25923828 33.02864624 20.10099609 33.02054932 20.96826172 33.01220703 C22.27730469 33.01794739 22.27730469 33.01794739 23.61279297 33.02380371 C25.45525264 33.02652193 27.29775096 33.01916698 29.14013672 33.00244141 C31.95872106 32.98102951 34.77475657 33.00224504 37.59326172 33.02783203 C39.38493401 33.02518874 41.17660471 33.02006373 42.96826172 33.01220703 C43.81001953 33.02030396 44.65177734 33.02840088 45.51904297 33.03674316 C46.70046875 33.0178302 46.70046875 33.0178302 47.90576172 32.99853516 C48.59541016 32.99535278 49.28505859 32.99217041 49.99560547 32.9888916 C52.64122685 32.48592643 52.64122685 32.48592643 55.96826172 28.48095703 C55.96826172 20.56095703 55.96826172 12.64095703 55.96826172 4.48095703 C40.12826172 4.48095703 24.28826172 4.48095703 7.96826172 4.48095703 Z M9.37548828 48.07958984 C7.4624929 51.34402818 7.51368423 53.66088506 7.57763672 57.43408203 C7.58762695 58.64225586 7.59761719 59.85042969 7.60791016 61.09521484 C7.64432617 62.62500977 7.68074219 64.15480469 7.71826172 65.73095703 C7.80076172 70.59845703 7.88326172 75.46595703 7.96826172 80.48095703 C25.12826172 80.48095703 42.28826172 80.48095703 59.96826172 80.48095703 C60.09201172 73.17970703 60.09201172 73.17970703 60.21826172 65.73095703 C60.27288574 63.43626465 60.27288574 63.43626465 60.32861328 61.09521484 C60.33860352 59.88704102 60.34859375 58.67886719 60.35888672 57.43408203 C60.37983398 56.19819336 60.40078125 54.96230469 60.42236328 53.68896484 C60.17626506 50.4875448 60.17626506 50.4875448 58.56103516 48.07958984 C54.5444369 45.6030658 50.72438917 45.90935431 46.09326172 45.94970703 C45.13178223 45.94588013 44.17030273 45.94205322 43.1796875 45.93811035 C41.14891512 45.93539101 39.11810772 45.94275374 37.08740234 45.95947266 C33.97918602 45.98088179 30.87328116 45.95967157 27.76513672 45.93408203 C25.79117328 45.9367253 23.81721129 45.94185027 21.84326172 45.94970703 C20.91400879 45.94161011 19.98475586 45.93351318 19.02734375 45.9251709 C15.16626659 45.98127662 12.70450907 46.02700716 9.37548828 48.07958984 Z M-2.03173828 74.48095703 C-2.03173828 75.80095703 -2.03173828 77.12095703 -2.03173828 78.48095703 C-0.71173828 78.48095703 0.60826172 78.48095703 1.96826172 78.48095703 C1.96826172 77.16095703 1.96826172 75.84095703 1.96826172 74.48095703 C0.64826172 74.48095703 -0.67173828 74.48095703 -2.03173828 74.48095703 Z M65.96826172 74.48095703 C65.96826172 75.80095703 65.96826172 77.12095703 65.96826172 78.48095703 C67.28826172 78.48095703 68.60826172 78.48095703 69.96826172 78.48095703 C69.96826172 77.16095703 69.96826172 75.84095703 69.96826172 74.48095703 C68.64826172 74.48095703 67.32826172 74.48095703 65.96826172 74.48095703 Z " fill="#FFFFFF" transform="translate(18.03173828125,7.51904296875)"/>
<path d="M0 0 C2.64 0 5.28 0 8 0 C8 5.28 8 10.56 8 16 C5.36 16 2.72 16 0 16 C0 10.72 0 5.44 0 0 Z " fill="#FFFFFF" transform="translate(58,18)"/>
</svg>
